<?xml version="1.0" encoding="UTF-8"?>
<svg version="1.1" xmlns="http://www.w3.org/2000/svg" width="167" height="179">
<path d="M0 0 C55.11 0 110.22 0 167 0 C167 59.07 167 118.14 167 179 C111.89 179 56.78 179 0 179 C0 119.93 0 60.86 0 0 Z " fill="#1F2838" transform="translate(0,0)"/>
<path d="M0 0 C6.30647559 4.02879703 10.60384848 9.70499558 12.52420044 16.98806763 C13.79320513 22.76225906 14.69840007 28.60067115 15.625 34.4375 C15.91250972 36.17148214 16.20156268 37.90520912 16.4921875 39.63867188 C17.06514891 43.0711608 17.62657886 46.50522387 18.1784668 49.94116211 C18.71977876 53.30245587 19.2812683 56.65930499 19.86254883 60.01391602 C20.00062958 60.81696671 20.13871033 61.6200174 20.28097534 62.44740295 C20.53928192 63.94472156 20.80089273 65.44147607 21.06668091 66.93748474 C22.80827212 77.10374303 24.02757132 88.03636241 18 97 C14.59465297 101.48527645 11.68162424 104.14061209 6.66796875 106.88671875 C6.06228561 107.22048019 5.45660248 107.55424164 4.83256531 107.89811707 C-1.58395086 111.3961935 -8.11749089 114.66760914 -14.6965332 117.84741211 C-16.70202899 118.81954269 -18.69955747 119.80690505 -20.69726562 120.79492188 C-30.86399437 125.76668435 -40.52967 129.59853193 -52 129.4375 C-53.1610022 129.42614014 -53.1610022 129.42614014 -54.34545898 129.41455078 C-67.24757881 129.0454184 -77.17597165 123.13578358 -86 114 C-91.57718397 108.07708521 -96.91186496 102.01858338 -101.91796875 95.60546875 C-103.87372724 93.15801863 -105.90894558 90.79624799 -107.96728516 88.43505859 C-114.66026242 80.67314849 -117.65650403 75.13370971 -117.35546875 64.8125 C-116.47975119 57.88374568 -113.65269997 52.16235968 -109 47 C-106.4609375 45.0703125 -106.4609375 45.0703125 -103.375 43.125 C-102.79016846 42.75624756 -102.20533691 42.38749512 -101.6027832 42.00756836 C-91.90894916 35.98037017 -81.92935584 30.41134222 -72.02587891 24.73925781 C-68.12668832 22.49802546 -64.24730023 20.22478038 -60.375 17.9375 C-59.73264404 17.55980469 -59.09028809 17.18210937 -58.4284668 16.79296875 C-55.31284447 14.96020496 -52.20172999 13.12052195 -49.09863281 11.26660156 C-45.90345076 9.35780435 -42.70195464 7.45990961 -39.5 5.5625 C-37.99445557 4.65649048 -37.99445557 4.65649048 -36.45849609 3.73217773 C-23.9918961 -3.62821104 -13.43335104 -7.15108737 0 0 Z " fill="#1F2837" transform="translate(132,19)"/>
<path d="M0 0 C8.16564675 6.81674935 11.82302364 13.47457993 13.69921875 23.8828125 C13.82258606 24.56378494 13.94595337 25.24475739 14.07305908 25.94636536 C14.50075278 28.3250729 14.91876118 30.7053636 15.3359375 33.0859375 C15.57834671 34.45466507 15.57834671 34.45466507 15.82565308 35.8510437 C16.92457825 42.06723536 17.99136322 48.28823502 19.03515625 54.51391602 C19.40342638 56.69333733 19.77781391 58.87173347 20.15820312 61.04907227 C25.7920716 93.33975397 25.7920716 93.33975397 15.6484375 108.2734375 C8.56397567 116.97554843 -2.60620541 121.23590887 -12.49194336 126.00927734 C-14.96530637 127.20549359 -17.4310511 128.41644639 -19.89648438 129.62890625 C-37.36952554 138.15406738 -54.12363172 144.74781655 -73.7265625 139.1171875 C-89.64652316 133.52826514 -99.32448275 122.78102926 -109.6640625 110.0859375 C-110.46070312 109.12042969 -111.25734375 108.15492187 -112.078125 107.16015625 C-113.56783303 105.35049374 -115.05116175 103.53555656 -116.52734375 101.71484375 C-117.96939603 99.94061855 -119.42553922 98.17776649 -120.89453125 96.42578125 C-128.77731728 86.90613255 -131.5666331 78.50464041 -130.6640625 66.0859375 C-128.66300235 54.70702766 -123.02554687 47.73001927 -113.79492188 41.17822266 C-108.57809074 37.69192799 -103.14322311 34.63719961 -97.6640625 31.5859375 C-95.18658673 30.19141018 -92.71230674 28.7912624 -90.23828125 27.390625 C-89.61161057 27.03648529 -88.98493988 26.68234558 -88.33927917 26.31747437 C-82.24471432 22.86575211 -76.21213861 19.31295791 -70.19293213 15.73181152 C-68.48636026 14.71676508 -66.77809632 13.70456525 -65.06982422 12.69238281 C-60.2426016 9.82847355 -55.42693386 6.95092817 -50.65234375 4 C-34.54109677 -5.89858485 -16.97130838 -12.19346203 0 0 Z M-47.5390625 10.2734375 C-49.64833046 11.52622191 -51.75771053 12.77881757 -53.8671875 14.03125 C-54.96998047 14.6902832 -56.07277344 15.34931641 -57.20898438 16.02832031 C-62.59749767 19.2441451 -68.02112604 22.40019308 -73.43899536 25.56619263 C-76.49946383 27.35649323 -79.55621565 29.15311587 -82.61328125 30.94921875 C-87.13057034 33.60312178 -91.65423598 36.24562322 -96.18359375 38.87890625 C-98.15630392 40.03115768 -100.12896331 41.18349608 -102.1015625 42.3359375 C-102.98859863 42.84842041 -103.87563477 43.36090332 -104.78955078 43.88891602 C-114.03820709 49.28156221 -114.03820709 49.28156221 -120.4765625 57.6484375 C-121.07404297 58.76412109 -121.07404297 58.76412109 -121.68359375 59.90234375 C-124.41218955 65.97917664 -124.68383488 72.97239623 -123.0859375 79.41796875 C-120.37001814 86.26949258 -115.44513713 91.59175928 -110.6640625 97.0859375 C-109.15869254 98.83589855 -107.65602662 100.5881531 -106.15380859 102.34082031 C-105.11915694 103.5456899 -104.08171744 104.74817111 -103.04150391 105.94824219 C-100.07227448 109.38470114 -97.27058468 112.89244438 -94.5390625 116.5234375 C-87.88636095 124.91162641 -78.12413048 130.76563404 -67.6640625 133.0859375 C-64.83655169 133.25998206 -62.0554305 133.36274951 -59.2265625 133.3984375 C-58.49501953 133.42744141 -57.76347656 133.45644531 -57.00976562 133.48632812 C-44.47130029 133.62600255 -33.17505588 127.75459794 -22.18847656 122.33276367 C-20.0402538 121.27402462 -17.88419202 120.23277097 -15.7265625 119.19335938 C2.68440903 110.88905511 2.68440903 110.88905511 14.38134766 95.34033203 C18.26858034 82.08795051 13.93692896 66.55398589 11.65551758 53.32250977 C11.02108534 49.63476519 10.40863898 45.94384053 9.79882812 42.25195312 C9.39972522 39.88519916 8.99937837 37.51865455 8.59765625 35.15234375 C8.32558601 33.51308678 8.32558601 33.51308678 8.04801941 31.8407135 C6.25388572 21.55106384 3.7017788 11.72203993 -5.13671875 5.28515625 C-20.48914918 -4.18858211 -33.07034204 1.52649467 -47.5390625 10.2734375 Z " fill="#9133E7" transform="translate(138.6640625,14.9140625)"/>
<path d="M0 0 C0.66 0.33 1.32 0.66 2 1 C-0.97 3.97 -3.94 6.94 -7 10 C-7 7 -7 7 -4.625 4.4375 C-3.75875 3.633125 -2.8925 2.82875 -2 2 C-1.34 1.34 -0.68 0.68 0 0 Z " fill="#2E284D" transform="translate(27,63)"/>
</svg>
