<?xml version="1.0" standalone="no"?>
<!DOCTYPE svg PUBLIC "-//W3C//DTD SVG 20010904//EN"
 "http://www.w3.org/TR/2001/REC-SVG-20010904/DTD/svg10.dtd">
<svg version="1.0" xmlns="http://www.w3.org/2000/svg"
 width="177.000000pt" height="177.000000pt" viewBox="0 0 177.000000 177.000000"
 preserveAspectRatio="xMidYMid meet">

<g transform="translate(0.000000,177.000000) scale(0.100000,-0.100000)"
fill="#000000" stroke="none">
<path d="M0 885 l0 -885 885 0 885 0 0 885 0 885 -885 0 -885 0 0 -885z m1290
753 c87 -27 177 -111 215 -203 8 -18 38 -173 66 -342 60 -364 62 -434 14 -521
-49 -91 -98 -125 -339 -242 -282 -137 -309 -146 -437 -144 -123 2 -238 44
-331 120 -67 56 -327 370 -354 429 -61 132 -29 293 77 391 30 27 115 81 239
152 55 31 333 193 460 267 63 37 131 74 150 83 71 29 162 33 240 10z"/>
<path d="M1095 1576 c-22 -7 -63 -26 -91 -43 -27 -17 -70 -41 -95 -55 -24 -14
-96 -55 -159 -93 -63 -37 -180 -106 -260 -152 -205 -120 -245 -148 -274 -186
-59 -77 -73 -195 -33 -279 12 -27 65 -98 117 -160 52 -62 118 -139 146 -173
101 -121 223 -179 374 -178 108 0 154 16 414 142 208 101 250 131 287 203 45
88 44 108 -15 466 -30 182 -62 345 -71 362 -25 49 -85 109 -129 132 -51 26
-155 33 -211 14z"/>
</g>
</svg>
